<svg width="15" height="20" viewBox="0 0 15 20" fill="none" xmlns="http://www.w3.org/2000/svg">
<path id="Icon" d="M6.53268 1.69057C6.79354 0.695295 8.20646 0.695295 8.46732 1.69057L9.6836 6.33096C9.75504 6.60352 9.93816 6.83329 10.1879 6.96376L14.3033 9.11365C15.0193 9.48767 15.0193 10.5123 14.3033 10.8863L10.1879 13.0362C9.93816 13.1667 9.75504 13.3965 9.6836 13.669L8.46732 18.3094C8.20646 19.3047 6.79354 19.3047 6.53268 18.3094L5.3164 13.669C5.24496 13.3965 5.06184 13.1667 4.8121 13.0362L0.69668 10.8863C-0.019285 10.5123 -0.019287 9.48768 0.696678 9.11366L4.8121 6.96376C5.06184 6.83329 5.24496 6.60352 5.3164 6.33096L6.53268 1.69057Z" fill="#F1598F"/>
</svg>
